<?xml version="1.0" encoding="utf-8"?>
<!-- Generator: Adobe Illustrator 16.0.0, SVG Export Plug-In . SVG Version: 6.00 Build 0)  -->
<!DOCTYPE svg PUBLIC "-//W3C//DTD SVG 1.1//EN" "http://www.w3.org/Graphics/SVG/1.1/DTD/svg11.dtd">
<svg version="1.1" id="Camada_1" xmlns="http://www.w3.org/2000/svg" xmlns:xlink="http://www.w3.org/1999/xlink" x="0px" y="0px"
	 width="48px" height="48px" viewBox="0 0 48 48" enable-background="new 0 0 48 48" xml:space="preserve">
<path fill-rule="evenodd" clip-rule="evenodd" fill="#FFFFFF" d="M24,1.08c-12.976,0-23.499,10.521-23.499,23.501
	c0,10.382,6.733,19.19,16.072,22.298c1.175,0.215,1.604-0.51,1.604-1.133c0-0.557-0.021-2.037-0.032-3.998
	c-6.537,1.42-7.916-3.15-7.916-3.15C9.16,35.885,7.62,35.16,7.62,35.16c-2.133-1.457,0.162-1.428,0.162-1.428
	c2.358,0.166,3.6,2.422,3.6,2.422c2.096,3.59,5.5,2.553,6.839,1.953c0.213-1.518,0.821-2.555,1.492-3.141
	c-5.218-0.596-10.705-2.609-10.705-11.614c0-2.567,0.916-4.665,2.419-6.307c-0.241-0.594-1.048-2.984,0.23-6.219
	c0,0,1.973-0.632,6.462,2.409c1.875-0.521,3.885-0.782,5.883-0.791c1.996,0.009,4.005,0.27,5.883,0.791
	c4.487-3.041,6.457-2.409,6.457-2.409c1.281,3.235,0.475,5.625,0.233,6.219c1.505,1.643,2.415,3.74,2.415,6.307
	c0,9.026-5.495,11.013-10.729,11.595c0.844,0.727,1.595,2.16,1.595,4.352c0,3.143-0.028,5.676-0.028,6.447
	c0,0.629,0.423,1.359,1.615,1.131C40.774,43.764,47.5,34.961,47.5,24.581C47.5,11.601,36.979,1.08,24,1.08z"/>
</svg>